<?xml version="1.0" encoding="UTF-8" standalone="no"?>
<!-- Created with Inkscape (http://www.inkscape.org/) -->

<svg
   xmlns:dc="http://purl.org/dc/elements/1.1/"
   xmlns:cc="http://creativecommons.org/ns#"
   xmlns:rdf="http://www.w3.org/1999/02/22-rdf-syntax-ns#"
   xmlns:svg="http://www.w3.org/2000/svg"
   xmlns="http://www.w3.org/2000/svg"
   xmlns:sodipodi="http://sodipodi.sourceforge.net/DTD/sodipodi-0.dtd"
   xmlns:inkscape="http://www.inkscape.org/namespaces/inkscape"
   width="423.65427"
   height="138.9437"
   id="svg2"
   version="1.1"
   inkscape:version="0.48.4 r9939"
   sodipodi:docname="fotofirmament_032.svg">
  <defs
     id="defs4">
    <filter
       inkscape:collect="always"
       id="filter4381"
       color-interpolation-filters="sRGB">
      <feGaussianBlur
         inkscape:collect="always"
         stdDeviation="0.66382837"
         id="feGaussianBlur4383" />
    </filter>
    <filter
       inkscape:collect="always"
       id="filter3769"
       color-interpolation-filters="sRGB">
      <feGaussianBlur
         inkscape:collect="always"
         stdDeviation="1.3541269"
         id="feGaussianBlur3771" />
    </filter>
    <filter
       inkscape:collect="always"
       id="filter3807"
       color-interpolation-filters="sRGB">
      <feGaussianBlur
         inkscape:collect="always"
         stdDeviation="3.2067701"
         id="feGaussianBlur3809" />
    </filter>
    <filter
       inkscape:collect="always"
       id="filter3852"
       color-interpolation-filters="sRGB">
      <feGaussianBlur
         inkscape:collect="always"
         stdDeviation="2.6841506"
         id="feGaussianBlur3854" />
    </filter>
  </defs>
  <sodipodi:namedview
     id="base"
     pagecolor="#ffffff"
     bordercolor="#666666"
     borderopacity="1.0"
     inkscape:pageopacity="0.0"
     inkscape:pageshadow="2"
     inkscape:zoom="1"
     inkscape:cx="110.58064"
     inkscape:cy="202.72551"
     inkscape:document-units="px"
     inkscape:current-layer="layer1"
     showgrid="false"
     inkscape:window-width="1920"
     inkscape:window-height="1141"
     inkscape:window-x="1280"
     inkscape:window-y="27"
     inkscape:window-maximized="1"
     fit-margin-top="0"
     fit-margin-left="0"
     fit-margin-right="0"
     fit-margin-bottom="0" />
  <metadata
     id="metadata7">
    <rdf:RDF>
      <cc:Work
         rdf:about="">
        <dc:format>image/svg+xml</dc:format>
        <dc:type
           rdf:resource="http://purl.org/dc/dcmitype/StillImage" />
        <dc:title></dc:title>
      </cc:Work>
    </rdf:RDF>
  </metadata>
  <g
     inkscape:label="Layer 1"
     inkscape:groupmode="layer"
     id="layer1"
     transform="translate(-335.68428,-654.41734)">
    <path
       style="font-size:257.45376587px;font-style:italic;font-variant:normal;font-weight:bold;font-stretch:normal;line-height:125%;letter-spacing:0px;word-spacing:0px;fill:#000000;fill-opacity:1;stroke:none;filter:url(#filter3852);font-family:Bickley Script LET;-inkscape-font-specification:Bickley Script LET Bold Italic"
       d="m 626.21999,660.87635 c -66.8743,0.94805 -133.33963,9.69312 -199.375,19.71875 3.04063,-3.08935 -2.18476,-5.21146 -3.3125,-1.34375 -0.75836,-1.15468 -2.04763,-6.52419 -4.18295,-3.91121 -0.98662,3.0023 2.67024,5.90422 -2.59716,3.83518 -1.63127,-1.56619 -5.12843,1.96862 -2.90739,2.85728 5.43101,-0.0143 6.25325,0.81372 2.426,3.89481 1.15967,3.50006 7.07961,-3.43548 5.7615,1.94894 -0.0944,2.57751 5.0336,2.94809 3.48471,-0.11481 -2.04256,-5.86445 2.08272,-0.8838 4.8808,-1.40696 1.36716,-2.8937 -4.36724,-3.83517 1.40486,-3.82006 66.6089,-9.92973 133.70262,-18.67118 201.16118,-18.78059 29.32887,0.49722 59.5177,1.46955 87.29091,11.89322 13.28359,4.99069 27.23196,15.06364 28.53429,30.36198 0.80173,12.48469 -3.72261,25.37055 -11.80312,34.8734 -4.42817,7.38788 -14.68538,3.44087 -11.33181,-5.07051 -1.53928,-8.91526 8.12938,-3.83781 12.84693,-5.52942 2.41926,-3.1581 -1.678,-3.4877 -3.90298,-2.90594 -1.91296,-0.5897 -7.61144,1.77135 -6.82114,-0.92831 0.12774,-3.42286 4.26586,-7.73283 2.44287,-10.697 -1.96676,0.23312 -5.16587,-0.0462 -5.18544,2.82275 -1.91308,2.721 -0.63425,9.6365 -4.73647,9.16573 -1.76757,0.0141 -4.14122,-0.6346 -4.73434,1.69902 -0.78164,3.91734 8.1771,-0.94255 4.76222,3.31654 -2.82056,3.56803 -8.77214,15.11616 -13.29347,9.21471 -0.96869,-4.743 0.89986,-16.41965 -7.53125,-12.5625 -5.05659,1.52383 -12.10945,10.39104 -14.35318,10.13866 -0.93212,-3.90173 5.94063,-11.33586 2.07193,-13.41991 -4.91792,-0.23105 -4.50642,4.96692 -6.81358,7.71998 -3.70724,5.01876 -8.05748,13.28773 -15.52002,11.64861 -5.46775,-2.34213 -5.48362,-8.87324 1.45661,-7.81246 10.47973,-1.52994 8.17592,-19.14809 -2.23893,-12.5612 -5.79037,3.83135 -7.23256,11.25497 -12.47089,15.69003 -5.14931,7.5308 -9.3263,-0.50737 -7.56944,-6.21621 -0.86764,-10.58513 -13.50311,-1.99467 -16.97658,2.72644 -5.52897,7.79171 -0.66836,-5.10016 -4.36717,-7.75769 -6.45516,-2.21077 -11.93943,4.89521 -16.76806,8.41506 -3.90038,1.82448 2.98917,-9.09548 0.73681,-11.72756 -5.01908,-0.43682 -4.95722,5.09695 -7.26316,7.96951 -2.8137,3.4326 -9.43279,15.16145 -13.61184,8.56174 -1.5832,-4.01246 3.76786,-13.54504 -3.0625,-11.125 -2.15447,3.46396 -3.34309,8.33646 -6.89414,11.1403 -8.74648,6.72454 -9.35093,-8.22725 -3.53502,-11.81712 3.71115,-3.91918 9.75384,-7.0856 15.08541,-4.66693 5.06717,2.63237 -3.19702,5.93572 0.1875,8.3125 5.24636,-0.16319 8.00597,-8.43691 2.8125,-11.09375 -7.17938,-4.01937 -16.15191,0.40927 -21.41839,5.80688 -4.07049,4.82403 -6.49304,11.30575 -12.36848,14.44225 -6.9552,0.37779 -1.27404,-10.50116 -5.46313,-13.78038 -7.09102,-2.28977 -12.95138,5.09367 -17.46875,9.6875 -1.50227,-0.19422 1.15872,-15.16254 -7.40863,-10.05081 -4.44322,1.39109 -10.70977,8.61264 -12.76623,8.69595 -0.70833,-3.80901 4.52264,-9.81907 1.45611,-12.11389 -5.05432,0.13863 -4.4442,5.44796 -7.15529,8.38954 -2.81423,5.20471 -10.95344,16.19633 -15.81346,7.26671 -1.66372,-5.08404 3.03179,-9.11489 3.46875,-13.71875 -1.84305,-5.75911 -11.90076,5.60574 -8.25941,-3.01194 -1.11371,-7.35165 -9.56914,0.73522 -5.27184,4.82444 -4.06882,5.62325 -8.04184,12.83518 -15.09375,14.90625 -5.01666,-3.59591 -0.36155,-11.83701 0.98716,-16.67132 0.0303,-2.47371 -3.85787,-1.1362 -5.08091,-0.20368 -1.04367,6.04528 -7.41766,11.36878 -13.65452,8.79208 -2.22279,-6.39356 6.72963,-13.28843 8.54631,-20.19263 2.36417,-6.25992 7.24642,-13.75426 3.92071,-20.3182 -7.83265,-1.59642 -10.39366,9.95209 -13.19524,15.67198 -2.68635,6.21017 -3.89791,12.89619 -4.89851,19.54677 -0.0693,-5.95724 -5.72111,-2.6683 -3.3827,1.03175 0.0705,4.98142 -11.50185,-6.82065 -9.67181,1.09675 9.07443,1.86123 3.19308,17.5786 -4.60174,10.6215 -5.25871,-4.10598 -3.83142,-15.21955 3.78125,-15.28125 5.94242,4.60423 7.77842,-5.32189 0.90625,-3.71875 -5.38807,-0.0697 -8.92387,3.98888 -11.27884,8.10062 -3.12472,4.75686 -11.43784,17.23713 -16.47116,8.49313 -0.99938,-6.0722 -0.55743,-14.57457 7.91497,-11.31668 2.51771,2.08713 8.28603,-2.00822 4.13622,-3.28875 -3.32465,-0.002 -7.42895,0.61591 -10.26994,0.23043 0.21802,-3.81693 4.39361,-8.27767 2.8125,-11.71875 -1.99064,0.22035 -5.20998,-0.0691 -5.24794,2.82275 -1.91306,2.721 -0.63408,9.63656 -4.73647,9.16573 -1.7539,0.0126 -4.17342,-0.62821 -4.73434,1.69902 -0.55003,3.84056 10.06899,-0.86081 3.29199,3.6824 -4.16283,4.1575 -13.16033,-7.19972 -12.409,0.50859 8.14313,1.50205 4.51193,16.28498 -3.62639,11.36253 -6.25549,-3.57082 -5.28515,-15.89837 2.83715,-16.02227 5.8568,4.53837 7.75964,-5.31502 0.90625,-3.71875 -8.52656,-0.45586 -10.31159,10.35176 -18.10369,11.63042 -3.01922,-1.16387 0.7468,-6.88708 2.56775,-9.44238 4.87612,-8.72777 10.41799,-17.9095 10.89774,-28.14004 -3.15438,-9.53031 -11.77335,3.95527 -12.82542,8.95511 -4.18583,8.89314 -6.11487,18.61872 -7.09888,28.34064 -2.57795,-0.70481 -4.36914,-10.17929 -6.56473,-3.85224 -0.64189,4.42195 5.83389,6.22556 6.08917,9.30242 -1.44009,12.69919 -0.34402,26.35564 -6.19394,38.08186 -2.32603,5.97003 -7.17167,0.45978 -10.268,1.09296 0.41131,8.4886 13.4979,6.67215 15.43799,-0.47048 5.56847,-12.47691 4.54903,-26.57702 6.40576,-39.87327 4.8623,-0.2331 8.89523,-6.04977 7.96875,1.75 1.41061,7.20189 11.58098,11.64759 16.57165,5.15009 5.63654,-3.6622 -1.56497,-13.59856 6.80961,-11.31066 4.25034,-1.56427 -0.0579,10.58215 6.50257,11.84049 6.92672,5.30793 14.28582,-7.08715 16.7244,-6.99378 0.49599,8.75082 13.14764,13.4781 17.77958,5.24574 2.56954,-4.5476 0.0803,-13.97002 6.39212,-9.0813 -1.70531,13.89264 -0.49146,28.53216 -5.98365,41.67318 -1.88406,5.78957 -7.17548,3.14364 -10.59096,1.81304 -1.34277,6.76355 10.74739,8.09681 13.47932,2.2887 6.65825,-9.86397 5.82851,-22.47433 7.26865,-33.83863 0.59309,-5.12642 -0.81699,-12.01435 6.40278,-8.68387 4.46298,0.0338 7.97709,-4.61113 6.49475,2.52092 0.99682,9.49627 12.27646,5.59604 15.86883,-0.0448 4.4896,-2.55928 5.89295,-11.01624 10.6866,-11.32912 5.92184,-1.78059 -3.0551,8.79169 1.09935,12.61785 4.19218,9.04764 15.8504,4.13495 19.47936,-2.75158 2.41308,-4.99172 -1.05317,11.12221 4.70254,5.22748 4.15487,-5.83283 9.62603,-11.21717 16.125,-14.25 0.86172,4.96238 -2.01581,11.40947 2.20201,15.19498 5.7918,-1.80074 8.02949,-10.77306 14.34256,-13.4477 7.26504,-3.83577 0.075,12.25113 7.98455,13.27043 6.55291,3.30104 11.13066,-10.33717 12.85079,-0.48788 5.05749,6.94607 13.80019,-3.36349 15.78678,-4.19104 0.76504,8.41543 11.35486,7.79181 14.76127,1.33541 2.53519,-2.73218 4.79231,-7.45839 3.37298,-0.86902 -0.60488,9.08931 6.61352,1.18638 8.76104,-2.53911 2.54065,-1.61798 10.9672,-11.97804 11.34678,-5.81775 0.082,4.33973 -1.9425,11.04739 2.99749,12.95793 4.16565,-2.89531 6.11397,-8.72144 10.65625,-11.5625 3.27606,-4.02652 7.91269,-4.09682 6.11037,2.24476 -1.38471,7.90556 8.54263,12.68777 13.48416,5.9865 3.07218,-3.73542 3.73611,-4.68432 4.53432,0.28842 3.88837,9.14411 15.49542,5.77378 19.84412,-1.00324 2.26984,-2.79632 4.28574,-6.47012 3.17564,-0.77205 -0.91032,7.53026 5.9627,4.49683 7.64517,-0.33199 3.37017,-2.49262 11.26452,-12.75876 13.73747,-8.0374 -1.42158,6.6717 3.2829,17.52057 11.33159,11.64429 4.05518,-1.23757 8.25804,-12.58489 7.98091,-3.80054 2.56107,10.00937 15.57666,6.91569 19.74593,-0.11788 7.24733,-9.72855 11.72905,-21.78547 12.44787,-33.90496 0.85033,-14.80509 -10.39654,-26.9708 -23.0844,-32.83589 -24.55521,-11.55854 -52.2055,-13.44905 -78.92048,-14.73549 -8.20509,-0.28879 -16.41677,-0.36874 -24.62642,-0.31203 z m -250.8125,39.21875 c -0.34534,8.56685 -5.04074,16.36324 -9.03125,23.71875 1.99983,-8.10067 3.9456,-16.91918 9.03125,-23.71875 z m 83.71875,0 c -0.28964,8.57236 -5.03707,16.43927 -9.0625,23.8125 1.98247,-8.15775 4.07178,-16.90795 9.0625,-23.8125 z m 11.15625,14.78125 c -3.72624,-0.41106 -8.79222,8.35609 -3.14282,8.2882 1.5591,-2.40124 4.06699,-4.20431 5.73657,-6.44445 0.35765,-1.39395 -1.56029,-1.80727 -2.59375,-1.84375 z m 197.4375,12.625 c 6.62319,2.62359 -6.46251,11.50495 -6.29757,6.41832 0.90955,-2.8704 3.12143,-6.03335 6.29757,-6.41832 z m -156.28125,0.21875 -0.1875,0.1875 0.1875,-0.1875 z m 173.03125,13.5625 c 0.63569,0.0898 -0.37196,1.28295 0,0 z m 0,0.8125 c 0.83489,0.68495 0.11822,0.12815 0,0 z"
       id="path3801"
       inkscape:connector-curvature="0" />
    <path
       style="font-size:257.45376587px;font-style:italic;font-variant:normal;font-weight:bold;font-stretch:normal;line-height:125%;letter-spacing:0px;word-spacing:0px;fill:#ffffff;fill-opacity:1;stroke:none;font-family:Bickley Script LET;-inkscape-font-specification:Bickley Script LET Bold Italic"
       d="m 303.25,19.875 c -47.72285,0.405681 -112.89255,6.242151 -201.28125,20 0.009,-0.0081 0.0235,-0.02401 0.0312,-0.03125 1.55231,-1.44898 2.40736,-2.93776 1.8125,-3.59375 -0.59487,-0.656 -0.56051,-0.49617 -2.3125,1.375 -0.34562,0.36913 -0.78197,0.77836 -1.1875,1.1875 -0.85356,-2.61879 -1.8611,-4.10783 -2.8125,-5.25 -0.85776,0.42714 -0.78764,1.45423 -0.5625,1.875 0.22513,0.42077 0.87087,1.36221 1.625,3.4375 0.0448,0.1232 0.08204,0.27238 0.125,0.40625 C 95.10439,38.22598 92.2187,37.875 92.2187,37.875 c 0,0 -0.91492,0.43747 -1.28125,1.5625 3.51116,0.22326 5.48884,0.6272 7.53125,1.1875 -1.28355,1.17461 -2.7617,2.38851 -4.375,3.53125 1.34471,0.74608 3.48336,-0.56581 5.28125,-2 0.28525,1.55924 0.47195,3.10267 0.5,3.875 0.0494,1.35826 2.03125,1.28125 2.03125,1.28125 -0.21429,-2.36157 -0.54871,-4.3137 -0.90625,-5.9375 2.88505,0.92086 5.90625,2.5625 5.90625,2.5625 C 107.66396,43.038398 105.74748,41.880255 103,40.78125 243.17163,19.002611 329.83733,16.642007 377.78125,27.1875 c 24.11947,5.3052 38.43394,13.88346 44.875,24.8125 6.44105,10.92905 5.06831,24.28305 -2.28125,39.3125 -3.19629,5.96536 -6.30975,9.21918 -8.8125,10.96875 -2.50285,1.74957 -4.38962,1.9867 -5.125,1.90625 -1.64484,-0.17992 -1.95738,-0.32578 -2.78125,-1.0625 -0.82867,-0.7132 -1.41329,-1.67974 -1.71875,-2.875 -0.69085,-2.61784 -0.32901,-6.68666 1.09375,-12.1875 L 403.71875,88 c 0.0125,-3.7e-4 0.0188,3.7e-4 0.0312,0 2.26125,-0.0643 4.05305,-0.09375 5.3125,-0.09375 2.27942,0 3.81607,-7.5e-4 4.53125,0.03125 L 414.78125,88 c 0.0689,-0.004 0.14279,-0.04115 0.1875,-0.09375 0.0259,-0.0254 0.0493,-0.05995 0.0625,-0.09375 l 0.46875,-1.25 c 0.0337,-0.0915 0.006,-0.21235 -0.0625,-0.28125 -0.0447,-0.0526 -0.11858,-0.08955 -0.1875,-0.09375 L 403.40625,86.71875 403.75,85.4375 c 0.80732,-2.73091 1.74023,-5.5414 2.75,-8.46875 L 407.1875,75 c 0.0302,-0.0785 0.0172,-0.15002 -0.0312,-0.21875 -0.009,-0.0108 -0.0206,-0.02205 -0.0312,-0.03125 -0.0254,-0.0261 -0.0598,-0.0492 -0.0937,-0.0625 -0.0486,-0.0149 -0.10765,-0.0149 -0.15625,0 l -3.375,0.59375 c -0.0317,0.004 -0.0346,0.01575 -0.0625,0.03125 -0.023,0.0166 -0.0461,0.0394 -0.0625,0.0625 -0.0125,0.0186 -0.024,0.0413 -0.0312,0.0625 l -0.25,0.71875 -0.53125,1.625 -0.875,2.5625 c -0.72336,2.08854 -1.32873,4.04468 -1.78125,5.8125 L 399.71875,86.75 394.25,86.71875 c -0.0214,0.007 -0.0437,0.01865 -0.0625,0.03125 -0.0317,0.004 -0.0659,0.01575 -0.0937,0.03125 -0.023,0.0166 -0.0149,0.0394 -0.0312,0.0625 L 393.25,88.0625 c -0.0691,0.0984 -0.0543,0.22801 0.0312,0.3125 0.0447,0.0526 0.11861,0.08955 0.1875,0.09375 l 5.84375,-0.28125 -0.15625,0.40625 c -5.8e-4,0.01 -5.8e-4,0.02125 0,0.03125 -0.11176,0.52039 -0.18978,1.00004 -0.28125,1.46875 0,0.011 -0.0294,0.02025 -0.0312,0.03125 -1.07085,1.7073 -2.05604,3.20139 -2.90625,4.34375 -2.10256,2.90499 -3.96891,5.06228 -5.59375,6.5 -1.62474,1.43772 -3.0104,2.125 -4.09375,2.125 -0.64699,0 -1.20361,-0.23179 -1.75,-0.75 -0.57822,-0.51944 -0.99783,-1.19362 -1.21875,-2 -0.23093,-0.96081 -0.42553,-3.08259 -0.625,-6.28125 -5.8e-4,-0.0118 6.7e-4,-0.01955 0,-0.03125 -0.10724,-2.10111 -0.2413,-3.52544 -0.40625,-4.25 -0.19812,-0.71774 -0.52392,-1.2741 -0.96875,-1.65625 -0.44492,-0.38214 -1.0058,-0.59374 -1.65625,-0.59375 -0.69142,2e-5 -1.59606,0.28611 -2.71875,0.78125 -0.01,-5.8e-4 -0.0213,-5.8e-4 -0.0312,0 -1.30043,0.6556 -2.51229,1.39991 -3.6875,2.1875 -1.53808,1.04531 -2.96495,2.10512 -4.3125,3.21875 -1.51721,1.24531 -3.48411,3.03136 -5.875,5.3125 -0.45925,0.4365 -0.82435,0.75693 -1.09375,0.96875 -0.13474,0.10591 -0.2344,0.17314 -0.3125,0.21875 -0.0779,0.0456 -0.14175,0.0312 -0.0937,0.0312 -0.0923,0 -0.13874,-0.0179 -0.1875,-0.0625 -0.049,-0.0446 -0.12191,-0.0897 -0.15625,-0.21875 -0.0365,-0.14399 -0.0192,-0.61035 0.0625,-1.25 0.0827,-0.63965 0.23764,-1.49242 0.46875,-2.5625 0.60544,-3.0756 1.65531,-6.6549 3.09375,-10.75 0.0302,-0.0785 0.0172,-0.18127 -0.0312,-0.25 -0.009,-0.0108 -0.0206,-0.02205 -0.0312,-0.03125 -0.0254,-0.0261 -0.0598,-0.0492 -0.0937,-0.0625 -0.0486,-0.0149 -0.10765,-0.0149 -0.15625,0 -1.47412,0.36138 -2.58932,0.77183 -3.34375,1.21875 -0.0211,0.007 -0.0441,0.01875 -0.0625,0.03125 -0.0263,0.0253 -0.049,0.05985 -0.0625,0.09375 -0.31739,0.75877 -0.59743,1.55135 -0.875,2.375 -0.23747,0.54565 -0.40244,0.87618 -0.625,1.3125 -0.29632,0.57898 -0.70394,1.28727 -0.71875,1.3125 -2.9e-4,4.4e-4 0,0.03125 0,0.03125 -1.76333,2.81581 -3.58588,5.33417 -5.4375,7.53125 l 0.0312,0 c -1.80152,2.10287 -3.44501,3.60988 -4.9375,4.5 -1.54597,0.92479 -3.11317,1.34375 -4.625,1.34375 -1.50605,0 -2.8815,-0.48966 -4.15625,-1.53125 -1.25839,-1.00882 -2.09517,-2.29207 -2.53125,-3.90625 -0.24592,-0.96826 -0.35375,-2.12249 -0.34375,-3.4375 0.81549,0.0728 1.50963,0.12501 1.8125,0.125 2.03119,1e-5 4.01268,-0.56441 5.9375,-1.625 1.84248,-1.02798 3.27542,-2.36569 4.28125,-4 0.9588,-1.60793 1.24818,-3.21524 0.84375,-4.8125 -0.26083,-0.9271 -0.74828,-1.66488 -1.46875,-2.15625 -0.7147,-0.48759 -1.60694,-0.78123 -2.65625,-0.78125 -2.10947,2e-5 -4.23965,1.13595 -6.375,3.28125 -1.7036,1.75046 -3.04563,3.82187 -4,6.125 -0.01,0.0208 -0.0226,0.01045 -0.0312,0.03125 -1.02853,1.46236 -2.09873,2.98001 -3.3125,4.5 -1.86153,2.27149 -3.4189,3.88145 -4.71875,4.9375 -1.34553,1.02328 -2.51659,1.53125 -3.4375,1.53125 -0.61179,0 -1.16938,-0.22897 -1.71875,-0.75 -0.58063,-0.52126 -0.98418,-1.19857 -1.1875,-2.03125 -0.11705,-0.40748 -0.2345,-1.27518 -0.3125,-2.53125 -0.0779,-1.25607 -0.12008,-2.90323 -0.15625,-4.96875 -0.0346,-0.92949 -0.16515,-1.73501 -0.34375,-2.40625 -0.17678,-0.67711 -0.51651,-1.20853 -1,-1.5625 -0.48339,-0.35396 -1.10558,-0.56249 -1.84375,-0.5625 -1.14077,2e-5 -2.51064,0.45558 -4.1875,1.3125 -1.5854,0.81977 -3.28716,1.97445 -5.03125,3.46875 -0.0115,0.01 -0.0197,0.02165 -0.0312,0.03125 -1.68013,1.37628 -3.40878,3.13768 -5.21875,5.25 -0.0107,0.009 -0.0222,0.02045 -0.0312,0.03125 l -1.9375,2.34375 -0.1566,0.1563 c -0.15908,-1.59337 -0.16533,-3.43264 -0.0625,-5.625 0.10579,-2.64533 0.0331,-4.33021 -0.1875,-5.1875 -0.18399,-0.68932 -0.52335,-1.28822 -1,-1.6875 -0.49609,-0.38645 -1.04638,-0.59373 -1.65625,-0.59375 -0.97909,1e-5 -2.2619,0.46207 -3.875,1.34375 -1.6131,0.88167 -3.55596,2.19045 -5.84375,3.9375 -2.73579,2.09414 -5.16992,4.34711 -7.40625,6.71875 0.24419,-2.09946 0.5794,-4.21857 1.03125,-6.375 0.55927,-2.62999 1.17232,-4.98866 1.875,-7.09375 l 0.28125,-0.78125 c 0.0302,-0.0785 0.0172,-0.18127 -0.0312,-0.25 -0.03,-0.041 -0.0772,-0.07645 -0.125,-0.09375 -0.0486,-0.0149 -0.10762,-0.0149 -0.15625,0 -0.01,-5.8e-4 -0.0213,-5.8e-4 -0.0312,0 -1.19482,0.39375 -2.22496,0.84384 -3.125,1.34375 -0.0211,0.007 -0.0441,0.01875 -0.0625,0.03125 -0.0107,0.009 -0.0222,0.02045 -0.0312,0.03125 -0.0125,0.0186 -0.024,0.01005 -0.0312,0.03125 -0.27314,0.7252 -0.48543,1.48357 -0.71875,2.21875 -0.4681,1.11014 -1.07351,2.29068 -1.65625,3.125 -1.52308,2.36668 -3.31458,4.75527 -5.375,7.15625 -2.98066,3.40003 -5.37334,5.03125 -7,5.03125 -0.74731,0 -1.37937,-0.26627 -1.9375,-0.8125 5.8e-4,-0.01 5.8e-4,-0.0212 0,-0.0312 -0.60515,-0.51634 -1.06263,-1.18662 -1.3125,-2.125 -0.74913,-2.7675 -0.46812,-6.09244 0.875,-10 0.0302,-0.0785 0.0172,-0.18127 -0.0312,-0.25 -0.009,-0.0108 -0.0206,-0.02205 -0.0312,-0.03125 -0.5737,-0.50639 -1.06162,-0.81248 -1.53125,-0.8125 -0.39395,1e-5 -0.82305,0.19449 -1.3125,0.46875 -0.0211,0.007 -0.044,-0.0125 -0.0625,0 -0.0107,0.009 -0.0222,0.02045 -0.0312,0.03125 -0.0125,0.0186 -0.024,0.0413 -0.0312,0.0625 -1.17819,3.78246 -2.82917,6.89997 -4.9375,9.34375 -0.01,-5.8e-4 -0.0214,-5.8e-4 -0.0312,0 -2.07726,2.44466 -4.02847,3.625 -5.90625,3.625 -1.02093,0 -1.91796,-0.31654 -2.75,-0.96875 -0.82501,-0.58358 -1.39733,-1.40915 -1.6875,-2.5 -0.28661,-1.07589 -0.2228,-2.4258 0.21875,-4.09375 0.39097,-1.63251 1.10378,-3.32778 2.125,-5 1.44133,-2.33976 3.44991,-4.29761 6.0625,-5.875 0.01,5.8e-4 0.0214,5.8e-4 0.0312,0 2.51227,-1.57519 4.98379,-2.34372 7.46875,-2.34375 1.72803,3e-5 3.13165,0.31372 4.21875,0.90625 l 0,-0.03125 c 1.06624,0.62114 1.71435,1.51383 2,2.65625 0.23958,0.87696 0.17826,1.70081 -0.1875,2.46875 -0.36567,0.76793 -1.05407,1.48866 -2.0625,2.1875 -0.023,0.0166 -0.0461,0.0394 -0.0625,0.0625 -0.0626,0.0868 -0.0626,0.19445 0,0.28125 l 0.375,0.59375 c 0.009,0.0108 0.0206,0.02205 0.0312,0.03125 0.0254,0.0261 0.0598,0.0492 0.0937,0.0625 0.0486,0.0149 0.10765,0.0149 0.15625,0 0.0198,0.002 0.0427,0.002 0.0625,0 1.73121,-0.79427 2.93646,-1.76087 3.65625,-2.875 0.7198,-1.11413 0.89124,-2.39042 0.53125,-3.78125 -0.40867,-1.45831 -1.26438,-2.56735 -2.59375,-3.3125 5.8e-4,-0.01 5.8e-4,-0.02125 0,-0.03125 -1.36275,-0.74452 -3.16561,-1.09372 -5.34375,-1.09375 -2.15844,3e-5 -4.48024,0.53913 -6.96875,1.625 -2.43985,1.05407 -4.66757,2.53212 -6.6875,4.40625 -1.5578,1.38 -2.87271,2.97856 -3.96875,4.78125 l 0,0.03125 c -0.45896,0.73605 -0.85299,1.47558 -1.1875,2.21875 -0.01,0.012 -0.0265,0.01935 -0.0312,0.03125 -0.6291,0.84339 -1.24964,1.70106 -1.9375,2.5625 -1.86057,2.27045 -3.44861,3.88025 -4.75,4.9375 -1.34717,1.02439 -2.48553,1.53125 -3.40625,1.53125 -0.61178,0 -1.204,-0.23205 -1.75,-0.75 -0.57755,-0.51848 -0.95178,-1.19322 -1.15625,-2.03125 -0.11792,-0.40994 -0.2271,-1.27551 -0.3125,-2.53125 -0.0856,-1.25575 -0.15133,-2.90386 -0.1875,-4.96875 -0.0337,-0.92389 -0.13226,-1.72797 -0.3125,-2.40625 -0.17754,-0.6789 -0.50939,-1.20944 -1,-1.5625 -0.4906,-0.35306 -1.13683,-0.56249 -1.875,-0.5625 -1.14086,2e-5 -2.51054,0.45559 -4.1875,1.3125 -1.58646,0.82039 -3.25744,1.97539 -5,3.46875 -0.0115,0.01 -0.0197,0.02165 -0.0312,0.03125 -1.67975,1.3754 -3.43906,3.13655 -5.25,5.25 -0.0107,0.009 -0.0222,0.02045 -0.0312,0.03125 l -1.9375,2.34375 -0.125,0.15625 c -0.15908,-1.59336 -0.19657,-3.43264 -0.0937,-5.625 0.1057,-2.6434 0.0661,-4.32435 -0.15625,-5.1875 -0.18351,-0.68957 -0.52373,-1.28829 -1,-1.6875 -0.50061,-0.38968 -1.07744,-0.59373 -1.6875,-0.59375 -0.9791,1e-5 -2.23825,0.46205 -3.84375,1.34375 -1.6056,0.88171 -3.5249,2.19061 -5.8125,3.9375 -2.72434,2.08516 -5.20598,4.32586 -7.4375,6.6875 0.239,-2.09131 0.55047,-4.19923 1,-6.34375 0.55937,-2.63 1.17232,-4.98867 1.875,-7.09375 l 0.28125,-0.78125 c 0.0302,-0.0785 0.0172,-0.18127 -0.0312,-0.25 -0.03,-0.041 -0.0772,-0.07645 -0.125,-0.09375 -0.0486,-0.0149 -0.10762,-0.0149 -0.15625,0 -0.01,-5.8e-4 -0.0214,-5.8e-4 -0.0312,0 -1.18414,0.39182 -2.20199,0.84853 -3.09375,1.34375 -0.0211,0.007 -0.0441,0.01875 -0.0625,0.03125 -0.0107,0.009 0.009,0.02045 0,0.03125 -0.0125,0.0186 -0.024,0.01005 -0.0312,0.03125 -0.18043,0.48015 -0.39409,0.99813 -0.5625,1.5 -0.3522,0.79147 -0.98159,2.1787 -1.53125,3.03125 -0.77106,1.19496 -2.64609,4.49312 -4.03125,6.25 -1.91625,2.49653 -3.58491,4.28657 -5.0625,5.4375 -1.40227,1.07996 -2.84328,1.59375 -4.3125,1.59375 -1.14568,0 -2.21399,-0.40527 -3.1875,-1.21875 -0.99025,-0.78207 -1.61906,-1.7489 -1.9375,-2.96875 -0.74135,-2.80827 -0.005,-6.27226 2.21875,-10.375 l 1.125,-2.09375 c 0.01,-0.0113 0.0236,-0.01985 0.0312,-0.03125 0.24641,-0.34944 0.25484,-0.75411 0.125,-1.1875 -0.0994,-0.37372 -0.29666,-0.70874 -0.59375,-0.9375 -0.32422,-0.22075 -0.68557,-0.37498 -1.09375,-0.375 -0.25911,2e-5 -0.54124,0.12588 -0.9375,0.3125 -0.39625,0.18661 -0.88206,0.48357 -1.5,0.84375 -1.6609,0.95799 -3.29817,1.37502 -4.84375,1.375 -0.26747,1e-5 -0.57714,-0.06417 -0.875,-0.125 0.0664,-0.12964 0.15257,-0.22272 0.25,-0.40625 1.07517,-2.13722 1.48979,-3.6679 1.1875,-4.71875 -0.11589,-0.47494 -0.28838,-0.8603 -0.59375,-1.125 -0.30537,-0.2647 -0.73383,-0.40623 -1.1875,-0.40625 -0.95717,3e-5 -1.71938,0.62846 -2.25,1.75 -0.54869,1.09175 -0.65854,2.30348 -0.34375,3.5625 0.16062,0.55454 0.4693,1.13088 0.9375,1.71875 -0.0587,0.10114 -0.10037,0.17615 -0.15625,0.28125 l 0.0312,0 c -0.18053,0.31932 -0.42812,0.66568 -0.625,1.03125 -0.01,0.0127 -0.0246,0.01855 -0.0312,0.03125 -0.18072,0.29131 -0.40296,0.67155 -0.875,1.375 -1.04901,1.56285 -3.23307,4.42 -5.15625,6.625 -1.78526,2.07163 -3.51082,3.68774 -5.1875,4.84375 -1.59444,1.12317 -2.9428,1.65626 -4.03125,1.65625 -0.64757,0 -1.17326,-0.20694 -1.59375,-0.59375 -0.42059,-0.38681 -0.75418,-0.95111 -0.96875,-1.78125 -0.45156,-1.64768 -0.50577,-3.62489 -0.125,-5.84375 0.34499,-2.14991 1.25004,-5.04719 2.625,-8.71875 l 0.28125,-0.75 c 5.8e-4,-0.01 5.8e-4,-0.02125 0,-0.03125 0.0149,-0.0486 0.0149,-0.10764 0,-0.15625 -0.0132,-0.0338 -0.005,-0.06835 -0.0312,-0.09375 -0.0447,-0.0526 -0.11857,-0.0583 -0.1875,-0.0625 -0.87108,0.0341 -1.99861,0.29115 -3.3125,0.71875 -0.0339,0.0133 -0.0684,0.0364 -0.0937,0.0625 -0.0107,0.009 -0.0222,-0.0108 -0.0312,0 -0.0125,0.0186 -0.024,0.0413 -0.0312,0.0625 -0.58726,1.37491 -1.01932,2.66293 -1.40625,3.90625 0,0.0115 -0.0283,0.01985 -0.0312,0.03125 -0.72259,1.21606 -2.03464,2.79891 -3.8125,4 -1.79391,1.21194 -4.06569,2.05446 -6.65625,1.71875 -1.10778,-0.14357 -2.41097,-0.44654 -3.90625,-1.03125 -0.0933,-0.0533 -0.15623,-0.09541 -0.25,-0.15625 0.17773,-1.83043 0.31649,-3.50411 0.5,-4.65625 0.80318,-1.24054 1.76475,-2.87593 2.75,-4.34375 1.57155,-2.39263 3.54353,-5.95806 5.90625,-10.75 2.45783,-5.15456 4.09767,-9.48964 4.9375,-12.96875 0.58015,-2.62413 0.70605,-4.65369 0.34375,-6.09375 -0.15437,-0.55255 -0.38588,-0.97813 -0.71875,-1.28125 -0.33297,-0.30312 -0.74276,-0.49997 -1.21875,-0.5 -0.44684,2e-5 -0.94063,0.24023 -1.5,0.59375 -0.55938,0.35351 -1.18455,0.87198 -1.8125,1.5 -1.25589,1.25606 -2.59129,2.96633 -3.5625,4.96875 -1.92058,3.96015 -4.46481,10.14378 -5.59375,13.5625 -1.56549,4.78613 -2.4264,10.06358 -3.34375,16 -0.0192,0.14168 -0.0491,0.26699 -0.0625,0.40625 -0.0692,0.0414 -0.14469,0.08518 -0.21875,0.125 -1.21512,-1.68103 -2.00179,-3.47956 -2.15625,-4.6875 -0.003,-0.0548 -0.0269,-0.11437 -0.0625,-0.15625 -0.0447,-0.0526 -0.11861,-0.08955 -0.1875,-0.09375 -0.0548,0.003 -0.11429,0.0271 -0.15625,0.0625 -0.26227,0.20474 -0.46381,0.57353 -0.625,1.03125 -0.1611,0.45772 -0.24973,1.01144 -0.1875,1.53125 -0.002,0.0199 -0.002,0.0426 0,0.0625 0.31431,0.82803 0.92145,1.87624 1.65625,2.9375 -0.74884,0.20226 -1.54448,0.31251 -2.4375,0.3125 -1.28436,1e-5 -2.65298,-0.2487 -4.1875,-0.75 -1.29206,-1.56534 -2.50798,-2.40624 -3.65625,-2.40625 -0.36019,1e-5 -0.6736,0.07059 -0.875,0.28125 -0.2014,0.21064 -0.2106,0.50538 -0.125,0.8125 0.11416,0.45882 0.45266,0.88923 0.96875,1.25 0.51609,0.36078 1.20333,0.68588 2.09375,1 0.25477,0.0891 0.48185,0.17294 0.75,0.28125 0.41501,0.83714 0.7808,1.66848 1,2.46875 0.67872,2.47858 0.41884,4.61499 -0.6875,6.46875 l 0,0.0312 c -1.18299,1.84835 -2.77485,2.71875 -4.90625,2.71875 -1.69485,0 -3.24176,-0.57649 -4.65625,-1.84375 -1.46662,-1.30371 -2.49199,-2.90448 -3,-4.8125 -0.80723,-3.10491 -0.44884,-5.86523 1.03125,-8.28125 1.49817,-2.44804 3.55961,-3.59373 6.25,-3.59375 l 0,-0.03125 c 0.6191,0.0819 1.38904,0.52945 2.15625,0.8125 0.38866,0.14344 0.78749,0.25712 1.1875,0.25 0.39991,-0.007 0.81405,-0.17954 1.15625,-0.5 0.0107,-0.009 -0.009,-0.02045 0,-0.03125 0.32845,-0.48545 0.48761,-0.9054 0.40625,-1.28125 -0.0654,-0.24272 -0.22263,-0.43089 -0.46875,-0.59375 -0.24621,-0.16286 -0.58874,-0.31885 -1,-0.4375 -0.77116,-0.20298 -1.60641,-0.28122 -2.5,-0.28125 -2.38849,3e-5 -4.57404,0.79389 -6.46875,2.40625 -0.0106,0.01 -0.0207,0.02215 -0.0312,0.03125 -0.78693,0.66375 -1.49302,1.45251 -2.09375,2.25 -0.0163,0.0223 -0.0462,0.0088 -0.0625,0.03125 -0.01,0.008 -0.02745,0.02695 -0.03125,0.03125 -0.0107,0.009 -0.02215,0.02045 -0.03125,0.03125 -0.11523,0.15721 -0.18633,0.32696 -0.28125,0.46875 -0.0106,0.01 -0.02065,0.01795 -0.03125,0.03125 -0.0106,0.0134 -0.02355,0.01525 -0.03125,0.03125 -0.1533,0.23454 -0.30285,0.4825 -0.4375,0.71875 l 0,0.03125 L 97.875,90.5 c -1.31947,2.04672 -2.55318,3.82218 -3.65625,5.28125 -1.12124,1.4919 -2.20627,2.80388 -3.28125,3.96875 -2.74714,2.96961 -5.23492,4.40625 -7.46875,4.40625 -1.04623,0 -1.9523,-0.31825 -2.75,-1.03125 C 79.89085,102.41175 79.30556,101.44519 79,100.25 78.30944,97.63213 78.6706,93.5633 80.09375,88.0625 L 80.78125,88 c 0.0125,-3.6e-4 0.01875,3.7e-4 0.03125,0 2.26144,-0.0642 4.05267,-0.09375 5.3125,-0.09375 2.27866,0 3.81626,-7.5e-4 4.53125,0.03125 L 91.84375,88 c 0.069,-0.004 0.14276,-0.04115 0.1875,-0.09375 0.0259,-0.0254 0.0493,-0.05995 0.0625,-0.09375 l 0.46875,-1.25 C 92.5962,86.471 92.5686,86.35015 92.5,86.28125 92.4553,86.22865 92.38146,86.1916 92.3125,86.1875 L 80.46875,86.71875 80.8125,85.4375 c 0.80751,-2.73092 1.7407,-5.54137 2.75,-8.46875 L 84.25,75 c 0.0302,-0.0785 0.01725,-0.15002 -0.03125,-0.21875 -0.009,-0.0108 -0.02055,-0.02205 -0.03125,-0.03125 -0.0254,-0.0261 -0.05985,-0.0492 -0.09375,-0.0625 -0.0486,-0.0149 -0.10762,-0.0149 -0.15625,0 l -3.375,0.59375 c -0.0317,0.004 -0.06585,0.01575 -0.09375,0.03125 -0.0233,0.0165 -0.01455,0.0393 -0.03125,0.0625 -0.0125,0.0186 -0.02405,0.0413 -0.03125,0.0625 l -0.25,0.71875 -0.53125,1.625 -0.875,2.5625 c -0.72287,2.0885 -1.32863,4.04466 -1.78125,5.8125 L 76.78125,86.75 71.3125,86.71875 c -0.0211,0.007 -0.0441,0.01875 -0.0625,0.03125 -0.0317,0.004 -0.06585,0.01575 -0.09375,0.03125 -0.023,0.0166 -0.0461,0.0394 -0.0625,0.0625 L 70.3125,88.0625 c -0.0691,0.0984 -0.05435,0.22801 0.03125,0.3125 0.0447,0.0526 0.11858,0.08955 0.1875,0.09375 L 76.375,88.1875 76.21875,88.59375 c -5.8e-4,0.01 -5.8e-4,0.02125 0,0.03125 -0.0933,0.44006 -0.14345,0.82839 -0.21875,1.21875 0,0.0109 -0.02935,0.02035 -0.03125,0.03125 -1.4446,1.90678 -3.49123,2.84376 -6.25,2.84375 -1.28417,1e-5 -2.65297,-0.2487 -4.1875,-0.75 -1.29205,-1.56534 -2.53923,-2.40624 -3.6875,-2.40625 -0.36029,1e-5 -0.6736,0.07059 -0.875,0.28125 -0.20139,0.21067 -0.2106,0.50542 -0.125,0.8125 0.11416,0.45881 0.45266,0.88922 0.96875,1.25 0.5161,0.36077 1.23449,0.68588 2.125,1 0.25747,0.0988 0.46551,0.1691 0.75,0.28125 0.41501,0.83714 0.74956,1.66848 0.96875,2.46875 0.67892,2.47853 0.4497,4.61494 -0.65625,6.46875 l 0,0.0312 c -1.18338,1.8484 -2.80609,2.71875 -4.9375,2.71875 -1.69475,0 -3.24175,-0.57649 -4.65625,-1.84375 -1.46662,-1.30371 -2.46083,-2.9045 -2.96875,-4.8125 -0.80722,-3.10491 -0.44883,-5.86523 1.03125,-8.28125 1.49856,-2.44807 3.5596,-3.59373 6.25,-3.59375 l 0,-0.03125 c 0.61909,0.0819 1.35778,0.52945 2.125,0.8125 0.38865,0.14344 0.81875,0.25712 1.21875,0.25 0.39991,-0.007 0.7828,-0.17955 1.125,-0.5 0.0107,-0.009 0.02215,-0.02045 0.03125,-0.03125 0.32816,-0.48539 0.48752,-0.90533 0.40625,-1.28125 -0.0654,-0.24272 -0.25388,-0.43089 -0.5,-0.59375 -0.24622,-0.16286 -0.55749,-0.31885 -0.96875,-0.4375 -0.77115,-0.20298 -1.60641,-0.28122 -2.5,-0.28125 -2.38858,3e-5 -4.57365,0.79392 -6.46875,2.40625 -0.0106,0.01 -0.02065,0.02215 -0.03125,0.03125 -0.85628,0.72257 -1.61609,1.5592 -2.25,2.4375 -0.01,0.0114 -0.02355,0.01995 -0.03125,0.03125 -0.01,0.008 -0.0014,-0.0078 -0.03125,0.03125 -0.18312,0.25192 -1.25692,1.533 -1.28125,1.5625 -2.9e-4,3.4e-4 0,0.03125 0,0.03125 -2.91844,3.44083 -6.27461,5.21987 -10.09375,5.4375 0.21525,-2.2541 0.43907,-4.35213 0.65625,-5.7187 0.52647,-0.81083 0.81555,-1.32939 0.90625,-1.5 0.0779,-0.14621 0.13595,-0.24774 0.1875,-0.34375 L 42.25,88.625 43.84375,86.15625 c 1.57242,-2.39267 3.57546,-5.95805 5.9375,-10.75 2.45918,-5.15459 4.06691,-9.48966 4.90625,-12.96875 0.58227,-2.6261 0.70566,-4.6572 0.34375,-6.09375 -0.15399,-0.55262 -0.38578,-0.97813 -0.71875,-1.28125 -0.33297,-0.30311 -0.77411,-0.49997 -1.25,-0.5 -0.44703,2e-5 -0.94332,0.24011 -1.5,0.59375 -0.55658,0.35364 -1.15705,0.87195 -1.78125,1.5 -1.2482,1.25611 -2.56033,2.96682 -3.53125,4.96875 -1.92068,3.96016 -4.49568,10.14382 -5.625,13.5625 -1.56405,4.78607 -2.4264,10.06355 -3.34375,16 -0.19024,1.37705 -0.37073,3.0638 -0.53125,4.84375 -2.65365,-0.96553 -4.24929,-3.03118 -5.1875,-6.4375 -0.004,-0.0315 -0.01585,-0.06595 -0.03125,-0.09375 -0.03,-0.041 -0.07718,-0.07645 -0.125,-0.09375 -0.0575,-0.0215 -0.12999,-0.0215 -0.1875,0 -0.0107,0.009 -0.02215,0.02045 -0.03125,0.03125 -0.30142,0.18041 -0.52775,0.51417 -0.6875,0.9375 -0.15975,0.42333 -0.26559,0.93745 -0.21875,1.4375 0.009,0.0108 0.02055,0.02205 0.03125,0.03125 -5.8e-4,0.01 -5.8e-4,0.02125 0,0.03125 1.19338,3.28983 3.17037,5.33852 6.25,6.15625 -0.37452,4.51246 -0.68942,9.67738 -1.0625,14.59375 -0.48685,6.39913 -0.84892,12.40643 -2.84375,20 -0.99265,3.77865 -2.61053,6.97266 -4.6875,8.5 -1.03843,0.76366 -2.14717,1.13395 -3.4375,0.96875 -1.29023,-0.1652 -2.74873,-0.85406 -4.34375,-2.25 -0.0254,-0.0261 -0.05985,-0.0492 -0.09375,-0.0625 -0.0486,-0.0149 -0.10762,-0.0149 -0.15625,0 -0.0317,0.004 -0.0346,0.0157 -0.0625,0.0312 -0.023,0.0166 -0.0461,0.0394 -0.0625,0.0625 -0.0125,0.0186 -0.02405,0.0413 -0.03125,0.0625 -0.0914,0.25937 -0.05,0.54213 0.0625,0.84375 0.11262,0.30163 0.30821,0.604 0.5625,0.9375 0.50859,0.66701 1.27264,1.3842 2.25,1.90625 1.95463,1.04411 4.73272,1.35403 7.65625,-0.8125 2.92814,-2.16946 4.67991,-5.8962 5.8125,-10.0625 1.1325,-4.16629 1.63364,-8.78907 2.09375,-12.71875 0.92283,-7.8694 1.18709,-13.73457 1.65625,-17.96875 0.13388,-1.20814 0.28824,-2.42028 0.40625,-3.65625 1.86576,-0.0896 3.46871,-0.60894 5.15625,-1.4375 1.48836,-0.70481 2.93397,-1.77041 4.34375,-3.0625 -0.56505,2.1958 -0.6169,4.44464 -0.03125,6.6875 0.6066,2.22861 1.75514,4.06754 3.46875,5.53125 -5.8e-4,0.01 -5.8e-4,0.0212 0,0.0312 1.76102,1.4958 3.66997,2.25 5.6875,2.25 1.8068,0 3.49598,-0.68471 4.96875,-1.9375 0.0106,-0.01 0.02065,-0.0221 0.03125,-0.0312 1.47806,-1.23201 2.55927,-2.83124 3.1875,-4.8125 0.59987,-1.93463 0.59034,-3.94087 0.0625,-6 -0.10031,-0.33514 -0.35512,-1.08908 -0.65625,-1.9375 1.38208,0.29029 2.56199,0.46876 3.4375,0.46875 2.18132,1e-5 4.02422,-0.60612 5.5625,-1.6875 -0.21506,1.26865 -0.43499,2.44552 -0.5,3.34375 -5.8e-4,0.01 -5.8e-4,0.02125 0,0.03125 -0.076,1.74935 0.1375,3.35141 0.53125,4.90625 0.49099,1.76889 1.37919,3.23647 2.6875,4.3125 1.32322,1.10803 2.84593,1.68749 4.5,1.6875 2.05946,-1e-5 4.24142,-1.01727 6.59375,-2.96875 2.18276,-1.81072 4.50553,-4.47595 6.96875,-7.9375 -0.16764,1.57086 -0.07151,3.15834 0.34375,4.75 0.60659,2.22859 1.7863,4.09878 3.5,5.5625 1.76092,1.49581 3.63872,2.25 5.65625,2.25 1.80671,0 3.49597,-0.68471 4.96875,-1.9375 0.0106,-0.01 0.0207,-0.0221 0.0312,-0.0312 1.47807,-1.23199 2.55965,-2.83117 3.1875,-4.8125 0.59977,-1.93462 0.62149,-3.94087 0.0937,-6 -0.10041,-0.33495 -0.35511,-1.08905 -0.65625,-1.9375 1.38199,0.29029 2.53074,0.46876 3.40625,0.46875 1.14337,1e-5 2.19129,-0.19649 3.15625,-0.5 0.22179,0.26356 0.46696,0.51364 0.6875,0.75 -0.52417,5.12847 -0.95815,11.90743 -1.4375,18.21875 -0.48542,6.39906 -0.81767,12.40641 -2.8125,20 -0.99275,3.77896 -2.58698,6.97292 -4.65625,8.5 -1.03469,0.76354 -2.18131,1.13392 -3.46875,0.96875 -1.28744,-0.16517 -2.71739,-0.854 -4.3125,-2.25 -0.0254,-0.0261 -0.0598,-0.0492 -0.0937,-0.0625 -0.0486,-0.0149 -0.10765,-0.0149 -0.15625,0 -0.0317,0.004 -0.0658,0.0157 -0.0937,0.0312 -0.023,0.0166 -0.0461,0.0394 -0.0625,0.0625 -0.0125,0.0186 -0.0241,0.0413 -0.0312,0.0625 -0.0914,0.25896 -0.049,0.54218 0.0625,0.84375 0.11176,0.30158 0.30956,0.60395 0.5625,0.9375 0.50571,0.66709 1.27648,1.38407 2.25,1.90625 1.94722,1.04437 4.73272,1.35389 7.65625,-0.8125 2.92737,-2.16947 4.64856,-5.89622 5.78125,-10.0625 1.13279,-4.16629 1.66459,-8.78907 2.125,-12.71875 0.921,-7.86933 1.1871,-13.73452 1.65625,-17.96875 0.1887,-1.70348 0.37083,-3.48166 0.53125,-5.1875 1.35987,0.60484 2.85206,1.06165 4.21875,1.1875 2.56469,0.2361 5.14065,-0.07394 7.15625,-1.375 0.84926,-0.52979 1.58058,-1.1401 2.34375,-1.84375 -0.58159,3.00766 -0.58199,5.61335 0,7.78125 0.3145,1.18131 0.85593,2.15463 1.71875,2.90625 0.86676,0.755 1.90345,1.15625 3.0625,1.15625 1.34351,0 2.9008,-0.59583 4.65625,-1.71875 1.78785,-1.18715 3.61279,-2.8119 5.5,-4.875 1.6935,-1.82748 3.77822,-4.17839 5.875,-7.1875 0.71066,-1.04618 1.35537,-2.02519 1.78125,-2.75 l 0,-0.03125 c 0.051,-0.0766 0.1146,-0.15551 0.1875,-0.28125 0.17851,-0.30637 0.38506,-0.63041 0.5625,-0.9375 0.77232,0.22286 1.50186,0.34376 2.15625,0.34375 0.7298,1e-5 1.63338,-0.1988 2.6875,-0.5625 0.59948,-0.22404 0.9742,-0.31249 1.125,-0.3125 0.0952,1e-5 0.15912,0.01345 0.1875,0.03125 0.0289,0.0179 0.0491,0.015 0.0625,0.0625 0,-0.0138 0.009,0.04457 -0.0312,0.15625 -0.0356,0.1117 -0.14219,0.26604 -0.25,0.46875 -2.43783,4.68848 -3.25003,8.71879 -2.375,12.03125 0.46127,1.70779 1.37909,3.11391 2.71875,4.1875 1.37381,1.07462 2.94217,1.625 4.65625,1.625 2.62096,0 5.22521,-1.28017 7.8125,-3.71875 1.70389,-1.61634 4.07169,-4.42762 6.53125,-7.84375 -0.34576,1.72631 -0.62179,3.37722 -0.75,4.90625 -0.17543,2.15818 -0.16532,3.57272 0.0312,4.3125 0.0779,0.32027 0.18495,0.58912 0.375,0.78125 0.18995,0.19213 0.43714,0.28125 0.71875,0.28125 0.40721,0 0.75328,-0.33642 1.0625,-0.84375 l 0,-0.0312 c 1.10547,-1.76619 2.56944,-3.59843 4.40625,-5.46875 1.82864,-1.90991 3.99976,-3.80183 6.46875,-5.75 1.53231,-1.16846 2.79908,-2.04759 3.78125,-2.625 0.98217,-0.5774 1.71674,-0.84375 2.0625,-0.84375 0.29642,0 0.49313,0.07836 0.65625,0.21875 0.16312,0.14035 0.29055,0.34777 0.375,0.6875 0.10339,0.40944 0.13598,1.0607 0.0937,1.90625 -5.7e-4,0.0113 5.8e-4,0.01995 0,0.03125 l -0.1875,2.46875 c -5.8e-4,0.01 -5.8e-4,0.02125 0,0.03125 -0.0817,1.92766 -0.0804,3.59208 -0.0312,5.03125 0.0385,1.27982 0.17639,2.27825 0.375,3 0.18226,0.64578 0.43664,1.15281 0.78125,1.5 0.34451,0.34718 0.76651,0.53125 1.25,0.53125 0.26564,0 0.49465,-0.15555 0.71875,-0.375 0.22419,-0.21945 0.47138,-0.53641 0.71875,-0.9375 0.50792,-0.83114 1.42341,-2.11996 2.75,-3.875 1.71014,-2.29484 3.69241,-4.34426 5.9375,-6.1875 1.38391,-1.1663 2.58504,-2.05038 3.5625,-2.625 0.97746,-0.57461 1.73073,-0.84375 2.25,-0.84375 0.37567,0 0.67485,0.08715 0.90625,0.28125 0.2315,0.19418 0.40228,0.49912 0.53125,0.9375 0.0269,0.13884 0.0385,0.48373 0.0625,1.0625 0.025,0.57876 0.0461,1.36825 0.0625,2.34375 0.0183,2.35854 0.24212,4.25551 0.625,5.71875 0.36096,1.28017 1.02879,2.37151 2,3.21875 0.94033,0.85011 2.02038,1.28125 3.1875,1.28125 2.2548,0 4.68778,-1.36795 7.375,-4.0625 0.4731,-0.48371 1.50424,-1.7005 2.59375,-3.03125 -0.21159,1.39631 -0.16249,2.7093 0.15625,3.90625 0.38433,1.39289 1.05195,2.49694 2.0625,3.3125 0.0106,0.01 0.0206,0.0221 0.0312,0.0312 0.97169,0.83465 2.16092,1.28125 3.46875,1.28125 3.68353,0 7.39432,-2.89982 11.21875,-8.53125 l 0.125,-0.125 c 0.15783,1.59708 0.35725,2.84202 0.5625,3.65625 0.40318,1.43938 1.09705,2.64837 2.125,3.625 0.98343,0.94813 2.13411,1.5 3.375,1.5 1.22233,0 2.55297,-0.59652 4.09375,-1.6875 1.49509,-1.06121 3.16108,-2.6838 4.96875,-4.84375 1.58588,-1.96342 3.0458,-3.9845 4.46875,-6.0625 -0.46444,2.07588 -0.78583,4.00492 -0.9375,5.8125 -0.17533,2.15817 -0.16523,3.57272 0.0312,4.3125 0.0789,0.32421 0.17716,0.59119 0.375,0.78125 0.19784,0.19007 0.46829,0.28125 0.75,0.28125 0.40722,0 0.75338,-0.33638 1.0625,-0.84375 l 0,-0.0312 c 1.10557,-1.7662 2.56925,-3.59845 4.40625,-5.46875 1.8296,-1.91091 3.96966,-3.80244 6.4375,-5.75 1.5325,-1.16846 2.79907,-2.04759 3.78125,-2.625 0.98226,-0.5774 1.71684,-0.84375 2.0625,-0.84375 0.29652,0 0.51669,0.07676 0.6875,0.21875 0.17081,0.14198 0.29132,0.35089 0.375,0.6875 0.1005,0.39823 0.10462,1.05762 0.0625,1.90625 -6.7e-4,0.0133 6.7e-4,0.01795 0,0.03125 l -0.15625,2.46875 c -5.8e-4,0.01 -5.8e-4,0.02125 0,0.03125 -0.0817,1.92504 -0.11177,3.58864 -0.0625,5.03125 0.0385,1.28388 0.20947,2.28501 0.40625,3 0.18178,0.64392 0.41318,1.15197 0.75,1.5 0.33681,0.34803 0.76641,0.53125 1.25,0.53125 0.26555,0 0.48648,-0.15585 0.71875,-0.375 0.23227,-0.21915 0.50128,-0.53438 0.75,-0.9375 0.50792,-0.83115 1.42332,-2.11997 2.75,-3.875 1.71015,-2.29484 3.66117,-4.34425 5.90625,-6.1875 0.01,5.8e-4 0.0213,5.8e-4 0.0312,0 1.38391,-1.16628 2.58504,-2.05039 3.5625,-2.625 0.97746,-0.57462 1.73083,-0.84375 2.25,-0.84375 0.37577,0 0.67484,0.08715 0.90625,0.28125 0.2315,0.19416 0.40218,0.4991 0.53125,0.9375 0.0269,0.13885 0.0385,0.48374 0.0625,1.0625 0.025,0.57876 0.0461,1.36826 0.0625,2.34375 0.0183,2.35635 0.21,4.25227 0.59375,5.71875 0.36048,1.28026 1.02879,2.37154 2,3.21875 0.94005,0.85016 2.02009,1.28125 3.1875,1.28125 2.25451,0 4.71845,-1.36725 7.40625,-4.0625 0.59284,-0.606 1.63999,-1.89014 3.1875,-3.8125 0.35355,-0.44876 0.60128,-0.74024 0.875,-1.09375 -0.23842,1.74847 -0.17213,3.43141 0.25,5 0.51821,1.97037 1.57614,3.5753 3.15625,4.8125 1.52866,1.27098 3.21433,1.90625 5.09375,1.90625 2.73031,0 5.64585,-1.48295 8.75,-4.40625 2.31847,-2.19078 4.80433,-5.34275 7.4375,-9.3125 -0.11436,0.57391 -0.24497,1.15194 -0.34375,1.75 -0.63006,3.63062 -0.71886,6.23557 -0.28125,7.90625 0.1434,0.52538 0.29561,0.95759 0.53125,1.25 0.23554,0.29241 0.56482,0.46875 0.90625,0.46875 0.3223,0 0.57723,-0.21125 0.875,-0.53125 0.29776,-0.32001 0.60894,-0.79677 1,-1.40625 2.40561,-3.47988 6.34997,-7.22269 11.8125,-11.25 2.1241,-1.61672 3.69575,-2.37499 4.53125,-2.375 0.35759,0 0.62677,0.0582 0.84375,0.25 0.21688,0.19179 0.38632,0.49932 0.5,0.9375 0.10426,0.34857 0.14682,0.88855 0.15625,1.59375 0.0875,2.21754 0.18604,4.12602 0.28125,5.65625 0.0452,0.67574 0.23696,1.48127 0.5,2.46875 0.35884,1.27438 0.93314,2.33866 1.8125,3.125 0.8784,0.78546 1.92953,1.1875 3.03125,1.1875 1.90404,0 3.90878,-0.87656 6.0625,-2.625 2.12505,-1.75161 4.34248,-4.43693 6.71875,-8.03125 l 0.59375,-0.9375 c -0.0866,0.64229 -0.18172,1.3292 -0.21875,1.84375 -5.8e-4,0.01 -5.8e-4,0.02125 0,0.03125 -0.076,1.74934 0.10615,3.3514 0.5,4.90625 0.4907,1.76889 1.41005,3.23646 2.71875,4.3125 1.32245,1.10812 2.81439,1.68749 4.46875,1.6875 4.6582,-1e-5 11.63968,-3.641 17.46875,-17 2.37637,-5.44639 5.11559,-12.45425 5.8125,-19.96875 0.697,-7.5145 -0.67378,-15.51444 -6.625,-22.84375 C 410.41007,32.2789 380.39897,20.32691 312.65625,19.875 c -3.06221,-0.0204 -6.18678,-0.0273 -9.40625,0 z m -250.71875,37.5 c 0.304141,-0.042 0.649167,0.657217 0.6875,0.625 0.181674,0.745338 0.145214,1.900352 -0.15625,3.40625 -0.31374,1.61369 -0.80474,3.36966 -1.46875,5.28125 -1.36285,3.88834 -3.56203,8.62759 -6.5625,14.1875 -1.24743,2.33695 -2.33379,4.0765 -3.3125,5.46875 0.15811,-0.93941 0.37278,-1.93296 0.78125,-3.96875 0.45338,-2.37001 0.96736,-4.53056 1.53125,-6.375 0.60977,-2.17715 1.20119,-4.12253 1.8125,-5.875 1.42229,-4.12763 2.7219,-7.2808 3.9375,-9.4375 0.01,5.8e-4 0.02135,5.8e-4 0.03125,0 0.6115,-1.14609 1.15287,-2.01122 1.625,-2.5625 0.47224,-0.55127 0.87283,-0.74998 1.09375,-0.75 z m 83.71875,0 c 0.30919,-0.04305 0.67308,0.666464 0.71875,0.625 0.18154,0.745563 0.17706,1.899834 -0.125,3.40625 -0.31267,1.61349 -0.8357,3.36962 -1.5,5.28125 -1.36169,3.88718 -3.56164,8.62694 -6.5625,14.1875 -1.24753,2.33696 -2.3337,4.07652 -3.3125,5.46875 0.1584,-0.93958 0.34201,-1.93297 0.75,-3.96875 0.45406,-2.37007 0.96735,-4.5306 1.53125,-6.375 0.60977,-2.17711 1.23321,-4.12241 1.84375,-5.875 1.42334,-4.12665 2.75238,-7.27929 3.96875,-9.4375 0.01,5.8e-4 0.0214,5.8e-4 0.0312,0 0.61227,-1.14689 1.12873,-2.01118 1.59375,-2.5625 0.46493,-0.55131 0.8411,-0.74998 1.0625,-0.75 z m 11.0625,16.5 c -1.26522,3e-5 -2.48556,0.90101 -3.6875,2.59375 -0.50311,0.75715 -0.86898,1.40365 -1.09375,1.9375 -0.22477,0.53384 -0.30445,0.97264 -0.21875,1.34375 0.11858,0.44624 0.50608,0.76125 1.15625,0.96875 0.0486,0.0149 0.10765,0.0149 0.15625,0 0.0317,-0.004 0.0659,-0.01575 0.0937,-0.03125 0.023,-0.0166 0.0461,-0.0394 0.0625,-0.0625 1.01276,-1.50245 2.38168,-2.91831 3.75,-4.34375 l 1.25,-1.1875 c 0.023,-0.0166 0.0461,-0.0394 0.0625,-0.0625 0.0346,-0.0653 0.0709,-0.10387 0.21875,-0.21875 0.0107,-0.009 0.0222,-0.02045 0.0312,-0.03125 0.0259,-0.0254 0.0493,-0.05995 0.0625,-0.09375 0.0149,-0.0486 0.0149,-0.10764 0,-0.15625 -0.004,-0.0315 -0.0159,-0.06595 -0.0312,-0.09375 -0.0167,-0.0232 -0.0392,-0.046 -0.0625,-0.0625 -0.009,-0.0108 -0.0205,-0.02205 -0.0312,-0.03125 -0.61237,-0.30286 -1.17534,-0.46872 -1.71875,-0.46875 z m 197.4375,11 c 0.69296,1e-5 1.2222,0.13981 1.625,0.4375 0.40279,0.2977 0.70534,0.71802 0.875,1.34375 0.29584,1.09022 0.0859,2.27849 -0.65625,3.5625 l 0,0.03125 c -0.76462,1.18839 -1.89865,2.20398 -3.40625,3.0625 l 0,-0.03125 c -1.52769,0.82959 -3.0774,1.25001 -4.625,1.25 -0.63459,1e-5 -1.1395,-0.02802 -1.59375,-0.125 0.30681,-1.58744 0.7516,-2.92982 1.25,-3.96875 0.0346,-0.0639 0.0462,-0.15501 0.0625,-0.1875 0.15081,-0.2968 0.30659,-0.56835 0.46875,-0.8125 1.93915,-3.08931 3.94121,-4.56248 6,-4.5625 z"
       transform="translate(322.26288,640.04609)"
       id="path3269"
       inkscape:connector-curvature="0" />
  </g>
</svg>
